<?xml version="1.0" encoding="utf-8"?>
<!-- Generator: Adobe Illustrator 29.7.1, SVG Export Plug-In . SVG Version: 9.03 Build 0)  -->
<svg version="1.0" id="Layer_1" xmlns="http://www.w3.org/2000/svg" xmlns:xlink="http://www.w3.org/1999/xlink" x="0px" y="0px"
	 viewBox="0 0 50 50" enable-background="new 0 0 50 50" xml:space="preserve">
<path d="M50,22.36v1.66c-0.14,0.48-0.2,0.98-0.34,1.46c-0.33,1.13-0.96,2.19-1.7,3.09c4.06,5.8-3.13,12.02-8.6,12.83
	c0.06,1.1,0.88,2.16,0.1,3.17c-0.34,0.43-0.88,0.59-1.41,0.64c-0.87,0.07-3.3,0.11-3.99-0.31l-5.01-5.43
	c-1.45-0.04-3.07-0.26-4.32-1.05c-0.45-0.28-0.69-0.67-1.14-0.92c-3.62,0.7-7.25,0.43-9.65-2.64c-0.18-0.23-0.62-1.11-0.81-1.15
	c-2.69,1.1-5.76,1.56-8.18-0.41C3.58,32.19,1.2,28.68,0.6,27c-0.27-0.76-0.42-1.51-0.58-2.3c0.04-0.57-0.05-1.19,0-1.76
	c0.29-3.28,2-4.93,3.65-7.43c0.31-0.47,0.54-1.09,0.85-1.59c2-3.16,4.57-4.82,8.14-5.82c1.39-0.39,2.19-0.66,3.53-1.16
	c11.85-4.42,20.55-1.83,28.88,7.3C47.03,16.41,49.71,19.36,50,22.36z M29.6,8.2c-3.6-0.52-7.21-0.08-10.64,1.07
	c0.75,0.95,1.9,1.95,1.02,3.21c-0.59,0.84-1.83,0.79-2.48,0.05c-0.73-0.82-0.91-1.67-2.3-1.71c-1.83-0.05-4.89,1.42-6.24,2.64
	c-2.25,2.03-4.09,5.91-1.22,8.26c1.11,0.9,1.69,0.58,2.84,0.87c1.48,0.38,1.46,2.88-0.34,3.08c-2.09,0.23-4.57-1.18-5.73-2.86
	c-0.32-0.46-0.52-0.99-0.85-1.44c-1.33,3.28,0.34,5.95,2.44,8.35c0.77,0.87,1.51,1.8,2.78,1.82c1.68,0.03,6.26-1.85,6.81-3.55
	c0.3-0.91-0.32-1.51,0.06-2.38c0.57-1.3,2.39-1.19,2.93,0.14c0.73,1.83,0.03,3.87-1.25,5.26c-0.21,0.23-1.34,1.1-1.36,1.19
	c-0.15,0.6,1.7,1.92,2.24,2.13c2.25,0.87,3.73,0.03,5.82-0.23c1.8-0.23,1.51,1.35,2.78,1.89c0.99,0.42,2.07,0.24,3.07,0.34
	c0.72,0.08,1.09,0.59,1.56,1.07c1.37,1.41,2.63,3.06,3.99,4.5l0.74,0.09c-0.37-1.15-0.84-2.98,0.77-3.38
	c0.99-0.24,1.96-0.26,3.01-0.6c2.44-0.8,6.51-3.47,5.93-6.48c-0.26-1.35-1.62-1.34-1.87-2.53c-0.24-1.17,0.95-1.78,1.56-2.55
	c1.66-2.11,1.54-4.5,0-6.62c-0.83-1.14-2.15-2.66-3.11-3.72c-0.51-0.56-1.13-1.02-1.56-1.66c-0.67,1.22-2.28,3.04-3.8,2.82
	c-0.98-0.14-1.44-1.19-1.14-2.1c0.26-0.78,1.21-0.94,1.71-1.51c0.29-0.33,0.57-0.96,0.63-1.39c-0.06-0.25-2.46-1.72-2.85-1.94
	c-0.4-0.22-1.62-0.89-2-0.94c-0.35-0.06-1.36,0.77-1.64,1.05c-0.9,0.92-1.52,2.31-1.69,3.58c-0.14,1.01,0.1,1.99-0.01,2.92
	c-0.2,1.67-2.85,1.69-3.12-0.11c-0.33-2.22,0.09-4.83,1.22-6.77L29.6,8.2z M25.3,27.39c-0.86,0.92-1.6,2.61-0.06,3.29
	c1.78,0.79,1.96-1.33,3.36-1.75c2.2-0.67,6.25,1.1,7.13,3.26c0.32,0.79,0.06,1.13,0.16,1.79c0.25,1.69,2.87,1.84,3.16-0.17
	c0.4-2.77-1.68-5.06-3.76-6.53c1.12-2.78,0.75-7.05-2.26-8.49c-1.22-0.58-2.49,0.18-2.35,1.57c0.12,1.14,1.22,1.15,1.68,2.03
	c0.6,1.13,0.37,2.39,0.07,3.58C29.96,25.45,27.15,25.41,25.3,27.39z M20.33,14.9c-0.14,0.9,0.4,1.2-0.39,2.05
	c-0.78,0.84-2.89,1.59-3.94,1.01c-0.3-0.17-0.47-0.56-0.84-0.72c-1.72-0.73-3.06,1.37-1.57,2.84c1.73,1.7,4.65,1.4,6.68,0.45
	c1.21,1.52,2.75,2.57,4.79,2.32c1.61-0.2,2.77-1.9,1.28-3.02c-0.97-0.72-1.53,0.1-2.37-0.17c-0.29-0.1-1.23-0.94-1.19-1.22
	c0.02-0.16,0.33-0.52,0.43-0.76c0.39-0.96,0.52-2.05,0.1-3.02c-0.27-0.62-0.94-1.06-1.63-0.96C21.1,13.78,20.42,14.31,20.33,14.9z
	 M39.62,24.98c0.58,0.12,3.01-0.31,3.58-0.57c1.52-0.7,0.94-3.01-0.67-3.02c-0.47,0-2.79,0.49-3.21,0.69
	c-0.93,0.46-1.15,1.76-0.42,2.49C39.01,24.68,39.48,24.95,39.62,24.98z"/>
</svg>
