<?xml version="1.0" encoding="utf-8"?>
<!-- Generator: Adobe Illustrator 29.7.1, SVG Export Plug-In . SVG Version: 9.03 Build 0)  -->
<svg version="1.0" id="Layer_1" xmlns="http://www.w3.org/2000/svg" xmlns:xlink="http://www.w3.org/1999/xlink" x="0px" y="0px"
	 viewBox="0 0 50 50" enable-background="new 0 0 50 50" xml:space="preserve">
<path d="M33.98,8.58c0.24,1.18,1.96,2.81,3.16,3.06c4.24,0.88,5.87-3.35,5.36-6.85c2.88-0.01,5.9-0.64,7.08,2.7l0.2,38.35
	c-0.21,2.48-1.78,3.67-4.16,3.85c-13.36,1-27.96-0.78-41.46,0c-2.25-0.2-3.78-1.57-3.93-3.85L0.48,7.31
	c1.25-3.14,4.26-2.52,7.03-2.53C7.41,7.09,7.43,9.7,9.59,11.1c1.8,1.17,4.35,0.63,5.61-1.04c0.13-0.17,0.82-1.4,0.82-1.48v-3.8
	h17.96C34.13,5.91,33.77,7.54,33.98,8.58z M46.64,15.37H3.36v29.35c0,0.57,1.36,2.04,2.18,1.74l39.15-0.01
	c0.78,0.11,1.95-1.09,1.95-1.73V15.37z M13.25,0.54c-1.07-1.04-3.07-0.49-3.39,0.96c-0.2,0.9-0.19,5.41-0.03,6.38
	c0.23,1.47,2.24,2.25,3.37,1.21C14.3,8.06,14.32,1.57,13.25,0.54z M40.18,7.88c0.15-0.97,0.17-5.49-0.03-6.38
	c-0.32-1.45-2.32-1.99-3.39-0.96c-1.07,1.03-1.05,7.52,0.06,8.55C37.94,10.13,39.95,9.35,40.18,7.88z M33.78,20.81
	c-0.4,0.7-0.43,6.25-0.04,6.89c0.1,0.17,0.57,0.54,0.77,0.62c0.75,0.3,4.62,0.29,5.59,0.18c1.25-0.15,1.63-0.79,1.73-1.95
	c0.14-1.59,0.55-6.09-1.5-6.35c-0.77-0.1-5.38-0.12-5.95,0.06C34.1,20.33,33.91,20.58,33.78,20.81z M22.8,20.2
	c-1.14,0.08-1.79,0.17-1.96,1.5c-0.11,0.9-0.11,4.94,0.11,5.66c0.5,1.59,4.78,1.28,6.24,1.15c1.16-0.11,1.81-0.48,1.95-1.73
	c0.12-1.03,0.14-4.54-0.07-5.47c-0.03-0.16-0.35-0.7-0.46-0.79C28.06,20.05,23.8,20.13,22.8,20.2z M8.21,34.84
	c-0.16,1-0.14,4.02-0.02,5.06c0.07,0.56,0.41,1.37,0.93,1.6c0.49,0.22,5.07,0.22,5.87,0.12c1.01-0.12,1.38-0.48,1.5-1.5
	c0.11-0.9,0.11-5.45-0.22-6c-0.21-0.35-0.87-0.71-1.29-0.78c-0.87-0.14-4.65-0.15-5.46,0.04C8.82,33.53,8.32,34.15,8.21,34.84z
	 M33.52,34.6c-0.17,0.91-0.13,4.52-0.01,5.52c0.12,1.01,0.48,1.38,1.5,1.5c0.9,0.11,5.45,0.11,6-0.22c0.17-0.1,0.54-0.57,0.62-0.77
	c0.3-0.75,0.29-4.62,0.18-5.59c-0.1-0.9-0.57-1.56-1.51-1.71c-0.88-0.14-4.65-0.15-5.46,0.03C34.3,33.5,33.63,34.06,33.52,34.6z
	 M29.15,35.05c-0.15-1.25-0.79-1.63-1.95-1.73c-1.46-0.13-5.74-0.44-6.24,1.15c-0.23,0.73-0.22,4.77-0.11,5.66
	c0.17,1.33,0.82,1.42,1.96,1.5c0.93,0.06,5.36,0.13,5.82-0.3C29.32,40.67,29.27,36.13,29.15,35.05z"/>
</svg>
