<?xml version="1.0" encoding="utf-8"?>
<!-- Generator: Adobe Illustrator 23.0.0, SVG Export Plug-In . SVG Version: 6.00 Build 0)  -->
<svg version="1.0" id="Layer_1" xmlns="http://www.w3.org/2000/svg" xmlns:xlink="http://www.w3.org/1999/xlink" x="0px" y="0px"
	 width="50px" height="50px" viewBox="0 0 50 50" enable-background="new 0 0 50 50" xml:space="preserve">
<path opacity="0.5" fill="#FFFFFF" enable-background="new    " d="M25,4.6C14.2,4.6,3.5,15.2,3.5,26c0.1,12.6,9,21.4,21.5,21.5
	c10.8,0,21.5-10.6,21.5-21.5C46.4,13.5,37.5,4.6,25,4.6z M25,44.3C15,45.4,6.7,37.7,6.7,27.7c0-10,8.5-18.9,18.3-19.9
	c10-1.1,18.3,6.7,18.3,16.7C43.3,34.4,34.8,43.3,25,44.3z"/>
<path fill="#FFFFFF" d="M25,2.5C14.2,2.5,3.5,13.1,3.5,24c0.1,12.6,9,21.4,21.5,21.5c10.8,0,21.5-10.6,21.5-21.5
	C46.4,11.4,37.5,2.5,25,2.5z M25,42.3C15,43.3,6.7,35.6,6.7,25.6c0-10,8.5-18.9,18.3-19.9c10-1.1,18.3,6.7,18.3,16.7
	C43.3,32.3,34.8,41.2,25,42.3z M30.4,22.5c-2,0.5-3,0.9-5.1,1.6c0-2.4,0-3.7,0-6.1c0-0.9-0.7-1.4-1.6-1.1c-0.9,0.2-1.6,1.2-1.6,2.1
	c0,3.1,0,4.7,0,7.8c0,0.9,0.7,1.3,1.6,1.1c2.7-0.8,4-1.3,6.7-2c0.9-0.2,1.6-1.1,1.6-2C32,22.8,31.3,22.3,30.4,22.5z M25,7.4
	c-0.9,0.1-1.6,0.9-1.6,1.8c0,0.6,0,0.9,0,1.5c0,0.9,0.7,1.5,1.6,1.3s1.6-1,1.6-1.9c0-0.5,0-0.8,0-1.4C26.6,7.9,25.9,7.3,25,7.4z
	 M36.7,10.6c-0.6-0.5-1.6-0.5-2.2,0c-0.4,0.4-0.6,0.5-1,0.9c-0.6,0.6-0.6,1.5,0,2c0.3,0.3,0.7,0.4,1.1,0.4c0.4,0,0.8-0.2,1.1-0.4
	c0.4-0.4,0.6-0.5,1-0.9C37.3,12.1,37.3,11.2,36.7,10.6z M40,20c-0.6-0.1-0.8-0.1-1.4-0.2c-0.9-0.1-1.6,0.5-1.6,1.4s0.7,1.7,1.6,1.7
	c0.6,0,0.8,0.1,1.4,0.2c0.9,0.1,1.6-0.4,1.6-1.4C41.6,20.8,40.9,20.1,40,20z M36.7,31.6c-0.4-0.5-0.6-0.7-1-1.1
	c-0.6-0.7-1.6-0.6-2.2,0.1c-0.6,0.7-0.6,1.8,0,2.5c0.4,0.4,0.6,0.6,1,1.1c0.3,0.3,0.7,0.5,1.1,0.5c0.4,0,0.8-0.2,1.1-0.5
	C37.3,33.4,37.3,32.3,36.7,31.6z M25,36c-0.9,0.2-1.6,1-1.6,1.9c0,0.5,0,0.8,0,1.4c0,0.8,0.7,1.4,1.6,1.3c0.9-0.1,1.6-0.9,1.6-1.8
	c0-0.6,0-0.9,0-1.5C26.6,36.4,25.9,35.8,25,36z M16.5,34.3c-0.6-0.5-1.6-0.5-2.2,0.1c-0.4,0.4-0.6,0.5-1,0.9c-0.6,0.5-0.6,1.4,0,1.9
	c0.3,0.3,0.7,0.4,1.1,0.4c0.4,0,0.8-0.1,1.1-0.4c0.4-0.4,0.6-0.5,1-0.9C17.1,35.8,17.1,34.9,16.5,34.3z M11.4,24.9
	c-0.6,0-0.8-0.1-1.4-0.2c-0.9-0.1-1.6,0.6-1.6,1.4c0,0.8,0.7,1.6,1.6,1.8c0.6,0.1,0.8,0.1,1.4,0.2c0.9,0.1,1.6-0.6,1.6-1.4
	C13,25.9,12.3,25,11.4,24.9z M16.5,14.9c-0.4-0.4-0.6-0.6-1-1.1c-0.6-0.7-1.6-0.7-2.2,0c-0.6,0.7-0.6,1.8,0,2.5
	c0.4,0.5,0.6,0.7,1,1.1c0.3,0.3,0.7,0.5,1.1,0.5c0.4,0,0.8-0.2,1.1-0.6C17.1,16.6,17.1,15.5,16.5,14.9z"/>
</svg>
