<?xml version="1.0" encoding="utf-8"?>
<!-- Generator: Adobe Illustrator 23.0.0, SVG Export Plug-In . SVG Version: 6.00 Build 0)  -->
<svg version="1.0" id="Layer_1" xmlns="http://www.w3.org/2000/svg" xmlns:xlink="http://www.w3.org/1999/xlink" x="0px" y="0px"
	 width="50px" height="50px" viewBox="0 0 50 50" enable-background="new 0 0 50 50" xml:space="preserve">
<g>
	<path fill="#FFFFFF" d="M33.1,27.2c-0.2-0.1-0.3-0.1-0.5,0c-2.5,1.6-4.9,1.5-7.4-0.2c-0.1-0.1-0.1-0.1-0.2-0.1s-0.1,0-0.2,0.1
		c-2.5,1.7-4.9,1.7-7.4,0.2c-0.2-0.1-0.3-0.1-0.5,0c-1.7,1.4-3.6,1.8-5.6,1.2c-0.3-0.1-0.6-0.2-0.9-0.3c0,0.2,0,0.3,0,0.4
		c0.4,4,0.7,7.3,1.1,11.3c0.1,1.7,1,2.7,2.3,2.7c2.4,0,4.7,0,7.1,0c0.1,0,0.2,0,0.3,0c-0.1-3.3-0.2-6.6-0.2-9.9c1.3,0,2.7,0,4,0
		s2.7,0,4,0c-0.1,3.3-0.2,6.6-0.2,9.9c0.1,0,0.2,0,0.3,0c2.4,0,4.7,0,7.1,0c1.3,0,2.2-1,2.3-2.7c0.4-4,0.7-7.3,1.1-11.3
		c0-0.1,0-0.2,0-0.4c-0.3,0.1-0.6,0.2-0.9,0.3C36.6,29,34.8,28.6,33.1,27.2z"/>
	<path fill="#FFFFFF" d="M41.5,12.4c-0.9-2-3.2-3.9-5.5-4.3c-2.4-0.4-6.2-0.6-11-0.6s-8.6,0.3-11,0.6c-2.4,0.4-4.6,2.3-5.5,4.3
		c-1.2,2.6-1.3,6.3-0.2,10s6.2,4.1,8.5,0.6c0-0.1,0.1-0.1,0.2-0.2c1.1,1.4,2.4,2.3,4.1,2.2c1.6,0,2.9-0.9,3.9-2.4
		c1,1.5,2.3,2.4,3.9,2.4s3-0.8,4.1-2.2c0.1,0.1,0.1,0.2,0.2,0.2c2.3,3.5,7.4,3.1,8.5-0.6C42.9,18.7,42.7,15,41.5,12.4z"/>
</g>
</svg>
