<?xml version="1.0" encoding="utf-8"?>
<!-- Generator: Adobe Illustrator 23.0.0, SVG Export Plug-In . SVG Version: 6.00 Build 0)  -->
<svg version="1.0" id="Layer_1" xmlns="http://www.w3.org/2000/svg" xmlns:xlink="http://www.w3.org/1999/xlink" x="0px" y="0px"
	 width="40px" height="40px" viewBox="0 0 40 40" enable-background="new 0 0 40 40" xml:space="preserve">
<path fill="#FFFFFF" d="M25.1,20.3c0-1.7-2.9-4.6-4.6-4.6c1.7,0,4.6-2.9,4.6-4.6c0,1.7,2.9,4.6,4.6,4.6C28,15.7,25.1,18.6,25.1,20.3
	z"/>
<path fill="#FFFFFF" d="M31.4,16.3c0-1.1-1.9-3-3-3c1.1,0,3-1.9,3-3c0,1.1,1.9,3,3,3C33.3,13.3,31.4,15.2,31.4,16.3z"/>
<path fill="#FFFFFF" d="M28.1,11.3c0-0.7-1.2-2-2-2c0.7,0,2-1.2,2-2c0,0.7,1.2,2,2,2C29.3,9.4,28.1,10.6,28.1,11.3z"/>
<path fill="#FFFFFF" d="M30.8,7.9c0-0.5-0.8-1.3-1.3-1.3c0.5,0,1.3-0.8,1.3-1.3c0,0.5,0.8,1.3,1.3,1.3C31.6,6.6,30.8,7.4,30.8,7.9z"
	/>
<path fill="#FFFFFF" d="M11,19.4c0-0.1,0-0.2,0-0.3c0.1-0.2,0.2-0.4,0.3-0.6c2.5-2.4,5.2-4.8,7.9-7.1c0.5-0.3,1-0.3,1.5,0
	c2.8,2.4,5.4,4.8,7.9,7.1c0.3,0.3,0.4,0.6,0.2,1c-0.2,0.3-0.5,0.6-1,0.6c-0.3,0-0.6,0-1,0c-0.1,0-0.1,0-0.2,0c0,0.1,0,0.2,0,0.2
	c-0.1,2.3-0.2,5.8-0.3,8c0,0.4-0.2,0.6-0.6,0.6c-1.3,0-2.7-0.1-4-0.1c-0.4,0-0.6-0.2-0.6-0.6c0-1.4,0-2.7,0-4.1c0-0.1,0-0.1,0-0.2
	c-0.8,0-1.7,0-2.5,0c0,0.1,0,0.1,0,0.2c0,1.3,0,2.7,0,4c0,0.5-0.2,0.6-0.6,0.6c-1.3,0-2.6,0-3.9,0.1c-0.4,0-0.6-0.2-0.6-0.6
	c-0.1-2.3-0.2-5.8-0.3-7.9c0-0.1,0-0.1,0-0.2c-0.4,0-0.8,0-1.2,0.1c-0.3,0-0.6-0.1-0.8-0.3C11.2,19.6,11.1,19.6,11,19.4z"/>
</svg>
