<?xml version="1.0" encoding="utf-8"?>
<!-- Generator: Adobe Illustrator 23.0.0, SVG Export Plug-In . SVG Version: 6.00 Build 0)  -->
<svg version="1.0" id="Layer_1" xmlns="http://www.w3.org/2000/svg" xmlns:xlink="http://www.w3.org/1999/xlink" x="0px" y="0px"
	 width="50px" height="50px" viewBox="0 0 50 50" enable-background="new 0 0 50 50" xml:space="preserve">
<g>
	<g>
		<path fill="#FFFFFF" d="M44.7,20.3c-0.3,5.9-0.6,10.7-1,16.6c0,0,0,0,0,0.1c-0.5,1.8-1.9,3-3.9,3c-9.9,0-19.8,0-29.7,0
			c-0.1,0-0.2,0-0.4,0c-2-0.1-3.5-1.7-3.6-3.6c-0.3-5.6-0.6-9.2-0.9-14.8c0-0.1,0-1.4,0-1.3c5.5,3.1,11,6.6,16.2,10.2
			c2.5,1.4,4.4,1.5,7,0c4.7-3.2,9.4-6.2,14.3-9.1C43.4,21,44.1,20.6,44.7,20.3z"/>
		<path fill="#FFFFFF" d="M44.9,15.1c-0.2,0.4-0.3,0.8-0.5,1.1c-0.3,0.4-0.7,0.8-1.2,1.1c-5.6,3.2-11,6.6-16.3,10.2
			c-1.2,0.9-2.8,0.9-4,0c-5.3-3.6-10.7-7.1-16.3-10.2C5.3,16.6,4.7,15,5,13.7c0.3-1.5,1.7-2.7,3.3-3c0.1,0,0.2,0,0.4,0
			c10.8-0.9,21.7-0.9,32.5,0c1.6,0.1,3.1,1.2,3.6,2.8c0.1,0.2,0.1,0.4,0.2,0.7C45,14.5,45,14.8,44.9,15.1z"/>
	</g>
</g>
</svg>
