<?xml version="1.0" encoding="utf-8"?>
<!-- Generator: Adobe Illustrator 23.0.0, SVG Export Plug-In . SVG Version: 6.00 Build 0)  -->
<svg version="1.0" id="Layer_1" xmlns="http://www.w3.org/2000/svg" xmlns:xlink="http://www.w3.org/1999/xlink" x="0px" y="0px"
	 width="50px" height="50px" viewBox="0 0 50 50" enable-background="new 0 0 50 50" xml:space="preserve">
<path fill="#4285F4" d="M25.4,20.9v8.7h12.1c-0.5,2.8-2.1,5.2-4.5,6.8l7.3,5.7c4.3-3.9,6.7-9.7,6.7-16.5c0-1.6-0.1-3.1-0.4-4.6
	L25.4,20.9z"/>
<path fill="#34A853" d="M12.8,29.3l-1.6,1.3l-5.8,4.5l0,0c3.7,7.3,11.3,12.4,20.1,12.4c6.1,0,11.2-2,14.9-5.4L33,36.4
	c-2,1.3-4.6,2.2-7.6,2.2C19.6,38.6,14.6,34.6,12.8,29.3L12.8,29.3z"/>
<path fill="#FBBC05" d="M5.4,14.9C3.8,17.9,3,21.4,3,25s0.9,7.1,2.4,10.1l7.5-5.8c-0.5-1.3-0.7-2.8-0.7-4.3s0.3-2.9,0.7-4.3
	L5.4,14.9z"/>
<path fill="#EA4335" d="M25.6,11.4c3.3,0,6.3,1.1,8.6,3.4l6.4-6.4c-3.9-3.6-9-5.9-15.1-5.9c-8.8,0-16.4,5.1-20.1,12.4l7.5,5.8
	C14.8,15.3,19.8,11.4,25.6,11.4L25.6,11.4z"/>
</svg>
