<?xml version="1.0" encoding="utf-8"?>
<!-- Generator: Adobe Illustrator 29.7.1, SVG Export Plug-In . SVG Version: 9.03 Build 0)  -->
<svg version="1.0" id="Layer_1" xmlns="http://www.w3.org/2000/svg" xmlns:xlink="http://www.w3.org/1999/xlink" x="0px" y="0px"
	 viewBox="0 0 50 50" enable-background="new 0 0 50 50" xml:space="preserve">
<g>
	<g transform="translate(3.75 3.75)">
		<path fill="#FFFFFF" d="M34.41,8.09L22.57,6.78L8.09,8.09L6.78,21.25l1.32,13.16l13.16,1.64l13.16-1.64l1.32-13.49L34.41,8.09z"/>
		<path fill="#1A73E8" d="M13.49,28.51c-0.98-0.66-1.66-1.63-2.04-2.92l2.28-0.94c0.21,0.79,0.57,1.4,1.09,1.84
			c0.51,0.43,1.14,0.65,1.87,0.65c0.75,0,1.39-0.23,1.92-0.68s0.81-1.03,0.81-1.73c0-0.72-0.28-1.3-0.85-1.76s-1.28-0.68-2.12-0.68
			h-1.32v-2.26h1.18c0.73,0,1.35-0.2,1.85-0.59c0.5-0.39,0.75-0.93,0.75-1.62c0-0.61-0.22-1.1-0.67-1.46s-1.01-0.55-1.7-0.55
			c-0.67,0-1.2,0.18-1.6,0.54s-0.68,0.8-0.86,1.32l-2.26-0.94c0.3-0.85,0.85-1.6,1.65-2.25c0.81-0.65,1.84-0.97,3.09-0.97
			c0.92,0,1.76,0.18,2.49,0.54c0.74,0.36,1.32,0.86,1.73,1.49c0.42,0.63,0.62,1.35,0.62,2.13c0,0.81-0.19,1.49-0.58,2.05
			s-0.87,0.99-1.43,1.29v0.13c0.75,0.31,1.36,0.79,1.84,1.43c0.48,0.64,0.72,1.41,0.72,2.3s-0.23,1.69-0.68,2.39
			s-1.08,1.25-1.88,1.65c-0.8,0.4-1.7,0.61-2.69,0.61C15.54,29.5,14.47,29.17,13.49,28.51z"/>
		<path fill="#1A73E8" d="M27.5,17.18l-2.49,1.81l-1.25-1.9l4.5-3.24h1.72v15.3H27.5V17.18z"/>
		<path fill="#EA4335" d="M34.41,46.25l11.84-11.84l-5.92-2.63l-5.92,2.63l-2.63,5.92L34.41,46.25z"/>
		<path fill="#34A853" d="M8.09,46.25h26.32V34.41H8.09"/>
		<path fill="#4285F4" d="M0.2-3.75c-2.18,0-3.95,1.77-3.95,3.95v34.21l5.92,2.63l5.92-2.63V8.09h26.32l2.63-5.92l-2.63-5.92H0.2z"
			/>
		<path fill="#188038" d="M-3.75,34.41v7.89c0,2.18,1.77,3.95,3.95,3.95h7.89V34.41H-3.75z"/>
		<path fill="#FBBC04" d="M34.41,8.09v26.32h11.84V8.09l-5.92-2.63L34.41,8.09z"/>
		<path fill="#1967D2" d="M46.25,8.09V0.2c0-2.18-1.77-3.95-3.95-3.95h-7.89V8.09H46.25z"/>
	</g>
</g>
</svg>
