<?xml version="1.0" encoding="utf-8"?>
<!-- Generator: Adobe Illustrator 23.0.0, SVG Export Plug-In . SVG Version: 6.00 Build 0)  -->
<svg version="1.0" id="Capa_1" xmlns="http://www.w3.org/2000/svg" xmlns:xlink="http://www.w3.org/1999/xlink" x="0px" y="0px"
	 width="50px" height="50px" viewBox="0 0 50 50" enable-background="new 0 0 50 50" xml:space="preserve">
<path fill="#FFFFFF" d="M33.9,45.2c-2,0.8-3.4,1.3-4.6,1.6c-1.1,0.3-2.4,0.7-3.9,0.7c-2.3,0-4.1-0.5-5.4-1.6c-1.3-1.1-2-2.6-2-4.2
	c0-0.7,0-1.3,0.2-2.1c0.2-0.7,0.3-1.5,0.5-2.3l2.3-8.3c0.2-0.8,0.3-1.6,0.5-2.3c0.2-0.7,0.2-1.3,0.2-2c0-1.1-0.2-1.8-0.7-2.3
	c-0.5-0.5-1.3-0.7-2.4-0.7c-0.7,0-1.3,0.2-2,0.3c-0.7,0.2-1.1,0.3-1.6,0.5l0.7-2.6c1.5-0.7,3.1-1.1,4.4-1.6c1.5-0.5,2.8-0.7,4.1-0.7
	c2.3,0,4.1,0.5,5.2,1.6c1.3,1.1,1.8,2.4,1.8,4.2c0,0.3,0,1-0.2,2c-0.2,1-0.2,1.8-0.5,2.4l-2.1,8.5c-0.2,0.7-0.3,1.5-0.5,2.3
	c-0.2,0.8-0.2,1.5-0.2,2c0,1.1,0.3,1.8,0.8,2.3c0.5,0.3,1.3,0.7,2.6,0.7c0.7,0,1.1-0.2,2-0.3c0.7-0.2,1.3-0.3,1.6-0.5L33.9,45.2z
	 M33.4,11.5c-1.1,1-2.4,1.5-3.9,1.5c-1.5,0-2.9-0.5-3.9-1.5c-1.1-1-1.6-2.3-1.6-3.8c0-1.5,0.5-2.6,1.6-3.8c1.1-1,2.4-1.5,3.9-1.5
	C31,2.5,32.4,3,33.4,4c1.1,1,1.6,2.3,1.6,3.8S34.5,10.3,33.4,11.5z"/>
</svg>
