<?xml version="1.0" encoding="utf-8"?>
<!-- Generator: Adobe Illustrator 23.0.0, SVG Export Plug-In . SVG Version: 6.00 Build 0)  -->
<svg version="1.0" id="Layer_1" xmlns="http://www.w3.org/2000/svg" xmlns:xlink="http://www.w3.org/1999/xlink" x="0px" y="0px"
	 viewBox="0 0 50 50" enable-background="new 0 0 50 50" xml:space="preserve">
<path id="insta1" fill="#FFFFFF" d="M25,10c-4.1,0-4.5,0-6.2,0.1c-1.2,0-2.4,0.2-3.6,0.7c-2,0.8-3.6,2.4-4.4,4.4
	c-0.4,1.1-0.6,2.4-0.7,3.6C10,20.5,10,20.9,10,25s0,4.5,0.1,6.2c0,1.2,0.2,2.4,0.7,3.6c0.8,2,2.4,3.6,4.4,4.4
	c1.1,0.4,2.4,0.6,3.6,0.7C20.5,40,20.9,40,25,40s4.5,0,6.2-0.1c1.2,0,2.4-0.2,3.6-0.7c2-0.8,3.6-2.4,4.4-4.4
	c0.4-1.1,0.6-2.4,0.7-3.6C40,29.5,40,29.1,40,25s0-4.5-0.1-6.2c0-1.2-0.2-2.4-0.7-3.6c-0.8-2-2.4-3.6-4.4-4.4
	c-1.1-0.4-2.4-0.6-3.6-0.7C29.5,10.1,29.1,10,25,10L25,10z M31.1,12.9c1,0,1.9,0.2,2.8,0.5c1.3,0.5,2.4,1.5,2.8,2.8
	c0.3,0.9,0.5,1.9,0.5,2.8c0.1,1.5,0.1,10.6,0,12.2c0,1-0.2,1.9-0.5,2.8c-0.5,1.3-1.5,2.4-2.8,2.8c-0.9,0.3-1.9,0.5-2.8,0.5
	c-1.5,0.1-10.6,0.1-12.2,0c-1,0-1.9-0.2-2.8-0.5c-1.3-0.5-2.4-1.5-2.8-2.8c-0.3-0.9-0.5-1.9-0.5-2.8c-0.1-1.5-0.1-10.6,0-12.2
	c0-1,0.2-1.9,0.5-2.8c0.5-1.3,1.5-2.4,2.8-2.8c0.9-0.3,1.9-0.5,2.8-0.5C20.3,12.8,29.5,12.8,31.1,12.9z M32.9,15.2
	c-1,0-1.8,0.8-1.8,1.8c0,1.1,1.1,2,2.3,1.7c0.7-0.2,1.3-0.9,1.3-1.6C34.8,16.1,34,15.2,32.9,15.2L32.9,15.2z M25,17.3
	c-4.2,0-7.7,3.4-7.7,7.7c0,4.2,3.4,7.7,7.7,7.7c4.2,0,7.7-3.4,7.7-7.7l0,0C32.7,20.8,29.2,17.3,25,17.3z M25,20
	c3.3,0,5.7,3.1,4.8,6.4c-0.4,1.5-1.5,2.6-2.9,3.2C23.5,31,20,28.3,20,25l0,0C20,22.2,22.2,20,25,20z"/>
</svg>
