<?xml version="1.0" encoding="utf-8"?>
<!-- Generator: Adobe Illustrator 29.7.1, SVG Export Plug-In . SVG Version: 9.03 Build 0)  -->
<svg version="1.0" id="Layer_1" xmlns="http://www.w3.org/2000/svg" xmlns:xlink="http://www.w3.org/1999/xlink" x="0px" y="0px"
	 viewBox="0 0 500 500" enable-background="new 0 0 500 500" xml:space="preserve">
<path d="M204,85.82L79.38,117.25c-2.63,0.67-4.63,2.01-6.13,4.39c-0.21,0.34-0.42,0.7-0.61,1.09c-0.46,0.9-0.82,2.31-1.11,4.14
	c-0.11,0.73-0.22,1.53-0.31,2.4c-0.14,1.3-0.25,2.73-0.33,4.3c-0.17,3.13-0.25,6.76-0.26,10.78c-0.06,24.08,2.4,61.79,2.41,85.42
	c0,7.88-0.27,14.19-0.99,17.92c1.99,10.29,33.8-6.44,36.62-4.38l1.75,33.91l93.63-25.09l1.75-34.85l34.38-10.96v-93.62l-34.38,7.47
	L204,85.82z M202.07,214.55l-89.67,24.03v-89.67l89.67-24.03V214.55z"/>
<path d="M207.46,405.79l33.05-9.27v-96.98l-33.04,8.44l0-0.01l-0.01,0l-3.42-34.93l-93.62,25.09L107,334.91l-34.54,11.34l-0.57,123
	l3.68,5.75l22.48-5.93l107.66-28.42L207.46,405.79z M114.08,426.4l-1.33-87.28l87.64-24.81l1.33,87.28L114.08,426.4z"/>
<path d="M425.69,25.21c-0.47-0.15-1.13-0.21-1.97-0.2c-16.93,0.22-104.84,32-122.86,32.99c-8.2,4.82,0.11,29-5.25,37.74
	l-34.53,11.35v93.63l35.86-6.18l0.42,32.94l96.99-25.99l1.75-34.85l33.05-9.27l0.22-126.41C429.4,27.95,428.35,26.05,425.69,25.21z
	 M302.7,187.23l-1.33-87.28l87.64-24.81l1.33,87.28L302.7,187.23z"/>
<g>
	<path d="M394.42,258.24l-1.8-34.34l-95.26,23.79l-0.07,36.58l-36.56,9.86l-0.06,91.64c1.98,10.3,33.8-6.44,36.62-4.38l1.75,33.91
		l130.11-34.51l0.13-128.32C426.98,245.92,401.63,257.95,394.42,258.24z M390.69,352.63l-89.67,24.03v-89.67l89.67-24.03V352.63z"/>
</g>
</svg>
