<?xml version="1.0" encoding="utf-8"?>
<!-- Generator: Adobe Illustrator 23.0.0, SVG Export Plug-In . SVG Version: 6.00 Build 0)  -->
<svg version="1.0" id="Layer_1" xmlns="http://www.w3.org/2000/svg" xmlns:xlink="http://www.w3.org/1999/xlink" x="0px" y="0px"
	 viewBox="0 0 50 50" enable-background="new 0 0 50 50" xml:space="preserve">
<g>
	<path fill="#FFFFFF" d="M9.2,33.2c-0.2-1.6,1-2.8,2.6-2.7c4.8,0.1,7.2,0.2,12,0.2c1.5,0,2.8,1.4,2.8,3c0,1.7-1.3,3-2.8,3
		c-4.7,0-7-0.1-11.6-0.5C10.7,36.1,9.3,34.8,9.2,33.2z M32.4,36.5c2-0.1,3-0.1,5.1-0.3c1.6-0.1,3-1.5,3.1-3c0.2-1.6-1-2.8-2.6-2.7
		c-2.1,0.1-3.2,0.2-5.3,0.2c-1.6,0-2.9,1.4-2.9,3S31,36.6,32.4,36.5z M40.9,24.9c-0.1-1.5-1.4-2.8-3-2.8c-5-0.1-7.5-0.1-12.5-0.1
		c-1.5,0-2.8,1.4-2.8,3c-0.1,1.7,1.2,3,2.8,3c5.1,0,7.6,0,12.7-0.1C39.7,27.8,40.9,26.5,40.9,24.9z M19.3,24.9
		c0.1-1.6-1.1-2.9-2.7-2.9c-1.9,0.1-2.8,0.1-4.6,0.1c-1.6,0-2.9,1.3-3,2.8c-0.1,1.6,1.2,2.9,2.8,2.9c1.8,0.1,2.7,0.1,4.6,0.1
		C17.9,27.9,19.2,26.6,19.3,24.9z M9.7,16.7c-0.3,1.6,0.8,2.8,2.3,2.7c5.5-0.2,8.2-0.2,13.7-0.2c1.6,0,2.8-1.3,2.7-2.9
		c0-1.6-1.3-3-2.7-3c-5.1,0-7.7,0.1-12.8,0.5C11.5,13.9,10.1,15.2,9.7,16.7z"/>
</g>
</svg>
