<?xml version="1.0" encoding="utf-8"?>
<!-- Generator: Adobe Illustrator 29.7.1, SVG Export Plug-In . SVG Version: 9.03 Build 0)  -->
<svg version="1.0" id="Layer_1" xmlns="http://www.w3.org/2000/svg" xmlns:xlink="http://www.w3.org/1999/xlink" x="0px" y="0px"
	 viewBox="0 0 50 50" enable-background="new 0 0 50 50" xml:space="preserve">
<g>
	<path d="M23.93,0c0.63-0.03,1.55,0.45,1.9,0.99c0.52,0.81,0.21,1.42,0.38,2.24c0.43,2.1,3.35,1.67,4.73,2.82
		c-0.25,0.63-0.57,1.21-0.76,1.87c-0.77,2.64-0.41,5.42,1.14,7.71c1.57,2.31,3.89,3.57,6.64,3.94c0.29,3.05,0.26,6.13,0.57,9.18
		c0.29,2.87,0.84,6.78,3.64,8.31c0.89,0.49,1.67,0.42,2.18,1.48c0.81,1.69-0.37,3.44-2.21,3.47c-3.09,0.05-6.23-0.1-9.32-0.12
		c-9-0.05-18.03,0.26-27.03,0.1c-1.91-0.03-3.1-2.3-1.87-3.84c0.58-0.73,1.42-0.76,2.16-1.2c3.63-2.17,3.39-8.51,3.64-12.19
		c0.47-7.09,0.58-15.79,8.14-19.11c0.92-0.41,2.79-0.74,3.39-1.32c1.07-1.03,0.25-2.29,1.06-3.44C22.61,0.44,23.4,0.03,23.93,0z"/>
	<path fill="#E00E0E" d="M38.39,2.73c6.36-0.29,10.38,6.79,6.92,12.16c-3.01,4.67-10.08,4.71-13.12,0.06
		C28.84,9.83,32.28,3.01,38.39,2.73z M39.67,13.6V7.68c-0.78-0.49-1.7,0.13-2.5,0.27L37.16,9.2l0.91-0.4l0.24,0.14v4.66H39.67z"/>
	<path d="M19.42,43.29c2.5-0.36,5.82,0.15,8.39,0.04c4.37,2.15,0.39,5.78-2.68,6.5c-2.51,0.59-5.7-0.44-7.26-2.54
		C16.79,45.82,17.61,43.55,19.42,43.29z"/>
	<path fill="#FFFFFF" d="M39.67,13.6h-1.36V8.94l-0.24-0.14l-0.91,0.4l0.01-1.25c0.81-0.14,1.73-0.76,2.5-0.27V13.6z"/>
</g>
</svg>
