<?xml version="1.0" encoding="utf-8"?>
<!-- Generator: Adobe Illustrator 23.0.0, SVG Export Plug-In . SVG Version: 6.00 Build 0)  -->
<svg version="1.0" id="_x30_" xmlns="http://www.w3.org/2000/svg" xmlns:xlink="http://www.w3.org/1999/xlink" x="0px" y="0px"
	 viewBox="0 0 50 50" enable-background="new 0 0 50 50" xml:space="preserve">
<path fill="#FFFFFF" d="M17.8,7.9c-0.1,0.2-0.2,0.3-0.4,0.3c-0.4,0-0.9,0-1.3,0c-0.9,0-1.3,0.5-1.3,1.4c0,0.1,0,0.2,0,0.3
	c-0.6,0-1.2,0-1.8,0.1c-2.3,0.1-4,1.7-4.3,4.1c0,0.2,0,0.5,0,0.7c0,6.7-0.2,13.4-0.4,20.1c-0.1,2.6,1.7,4.7,4.3,4.8
	c4,0.2,2.5,0.1,6.6,0.2c0.1,0,0.2,0,0.4,0c0-0.2,0-0.3,0-0.5c0.1-4.9,0.1-9.9,0.2-14.9c0-2.7,1.7-4.9,4.2-5.4
	c0.4-0.1,0.7-0.1,1.1-0.1c1.5,0,8.3,0,9.8,0.1c0.1,0,0.3,0,0.4,0c0-0.1,0-0.1,0-0.1c0-1.6,0.1-3.3,0-4.9c-0.1-2.2-2-4-4-4.1
	c-0.7,0-1.4,0-2.1,0c0-0.1,0-0.2,0-0.4c0-0.8-0.5-1.3-1.3-1.3c-0.5,0-0.9,0-1.4,0c-0.1,0-0.3-0.1-0.3-0.2c-0.6-1.7-1.8-2.7-3.5-3
	c0,0-0.1,0-0.1-0.1c-0.4,0-0.7,0-1.1,0c-0.4,0.1-0.8,0.2-1.2,0.4C19,5.8,18.2,6.7,17.8,7.9z M21.9,7.3c1,0,1.9,0.8,2,1.9
	c0.1,1,0.5,1.4,1.5,1.4c0.4,0,0.8,0,1.3,0c0,0.7,0,1.4,0,2c0,0.3-0.2,0.5-0.5,0.5c-0.1,0-0.1,0-0.2,0c-2.7,0-5.4,0-8,0.1
	c-0.6,0-0.7-0.1-0.7-0.7c0-0.6,0-1.1,0-1.8c0.5,0,0.9,0,1.3,0c0.9,0,1.4-0.4,1.4-1.4C20,8.2,20.8,7.3,21.9,7.3z"/>
<path fill="#FFFFFF" d="M37.6,21.6c-2.2,0-4.4,0-6.6,0c-2,0-4,0-5.9,0c-1.7,0-2.9,1.3-2.9,3.1c0,1.1,0,2.2,0,3.2
	c0,4.7-0.1,9.4-0.1,14.1c0,1.7,1.2,3,2.8,3c4.7,0,9.5-0.1,14.3-0.4c1.2-0.1,2.2-1,2.5-2.1c0-0.2,0.1-0.3,0.1-0.5
	c-0.4-5.9-0.6-12-0.7-17.9C40.2,22.2,39.5,21.6,37.6,21.6z M35.7,38c-0.2,0.1-0.4,0.2-0.6,0.2c-2.4,0.1-4.7,0.1-7.1,0.1
	c-0.8,0-1.3-0.6-1.3-1.3c0-0.7,0.5-1.2,1.3-1.2c1.2,0,2.4,0,3.5,0l0,0c1.2,0,2.4-0.1,3.6-0.1c0.6,0,1,0.4,1.2,0.9
	C36.4,37.2,36.2,37.8,35.7,38z M35.6,33c-0.2,0.1-0.4,0.2-0.6,0.2c-2.3,0.1-4.7,0.1-7,0.1c-0.7,0-1.2-0.4-1.3-1.1
	c-0.1-0.6,0.2-1.2,0.8-1.3c0.2-0.1,0.4-0.1,0.5-0.1c1.1,0,2.3,0,3.4,0l0,0c1.2,0,2.4,0,3.6,0c0.5,0,1,0.4,1.1,0.9
	C36.3,32.1,36,32.7,35.6,33z"/>
</svg>
