<?xml version="1.0" encoding="utf-8"?>
<!-- Generator: Adobe Illustrator 23.0.0, SVG Export Plug-In . SVG Version: 6.00 Build 0)  -->
<svg version="1.0" id="follow_x5F_icon" xmlns="http://www.w3.org/2000/svg" xmlns:xlink="http://www.w3.org/1999/xlink" x="0px"
	 y="0px" width="50px" height="50px" viewBox="0 0 50 50" enable-background="new 0 0 50 50" xml:space="preserve">
<path fill="#FFFFFF" d="M14.6,45c-0.6-0.2-1.2-0.3-1.7-0.5c-2.2-1.1-3.4-2.8-3.4-5.3c0-8.2,0-16.3,0-24.5c0-2.6,1.6-4.8,4.1-5.6
	c0.2-0.1,0.3-0.2,0.3-0.4c0-2.2,1.5-3.7,3.7-3.7c4.9,0,9.9,0,14.8,0c2.3,0,3.7,1.4,3.7,3.7c0,0.3,0.1,0.4,0.3,0.4
	c2.4,0.8,4.1,3,4.1,5.6c0,8.2,0,16.3,0,24.5c0,2.9-2.1,5.3-4.9,5.7c-0.1,0-0.1,0-0.2,0.1C28.5,45,21.5,45,14.6,45z M13.8,11.5
	c-1.3,0.7-2,1.8-2,3.2c0,8.1,0,16.3,0,24.4c0,2,1.5,3.5,3.5,3.5c6.5,0,12.9,0,19.4,0c2,0,3.5-1.5,3.5-3.5c0-8.2,0-16.3,0-24.5
	c0-1.1-0.4-1.9-1.2-2.6c-0.2-0.2-0.5-0.3-0.7-0.5c0,0.2-0.1,0.4-0.1,0.5c-0.3,1.6-1.7,2.9-3.4,2.9c-5.2,0-10.3,0-15.5,0
	c-0.7,0-1.4-0.2-1.9-0.6C14.4,13.6,13.9,12.7,13.8,11.5z M25,12.6c2.5,0,5,0,7.5,0c0.8,0,1.3-0.5,1.3-1.3c0-0.9,0-1.8,0-2.7
	c0-0.8-0.5-1.3-1.3-1.3c-5,0-10.1,0-15.1,0c-0.8,0-1.3,0.5-1.3,1.3c0,0.9,0,1.7,0,2.6c0,0.9,0.4,1.4,1.4,1.4
	C20,12.6,22.5,12.6,25,12.6z M17.7,36.2c0.5,0.6,1.1,0.7,1.7,0.3c0.5-0.4,0.6-1.1,0.2-1.7c-0.3-0.4-0.5-0.8-0.8-1.1
	c-0.2-0.2-0.2-0.4,0-0.6c0.3-0.4,0.6-0.8,0.8-1.2c0.4-0.6,0.3-1.3-0.2-1.7c-0.6-0.4-1.2-0.2-1.7,0.3c-0.2,0.2-0.4,0.5-0.6,0.8
	c-0.2-0.3-0.4-0.6-0.6-0.8c-0.4-0.6-1.1-0.7-1.6-0.3c-0.6,0.4-0.7,1.1-0.3,1.7c0.3,0.4,0.6,0.8,0.9,1.2c0.1,0.1,0.1,0.3,0,0.4
	c-0.3,0.4-0.6,0.8-0.9,1.3c-0.4,0.6-0.3,1.2,0.2,1.6c0.5,0.4,1.2,0.3,1.7-0.3c0.2-0.3,0.4-0.5,0.6-0.8C17.4,35.7,17.6,36,17.7,36.2z
	 M16.7,23.2c-0.3-0.6-1-0.8-1.6-0.5c-0.6,0.3-0.8,0.9-0.5,1.5c0.4,0.9,0.8,1.7,1.3,2.5c0.4,0.8,1.3,0.9,1.9,0.2
	c1.1-1.2,2.1-2.5,3.2-3.8c0.2-0.3,0.3-0.6,0.2-1c-0.1-0.5-0.4-0.7-0.9-0.9c-0.5-0.1-0.9,0-1.2,0.4c-0.6,0.8-1.3,1.5-2,2.3
	C17,23.8,16.8,23.5,16.7,23.2z M27.7,23.2c-0.8,0-1.3,0.5-1.3,1.2c0,0.7,0.5,1.2,1.3,1.2c2.2,0,4.4,0,6.6,0c0.8,0,1.3-0.5,1.3-1.2
	c0-0.7-0.5-1.2-1.3-1.2c-1.1,0-2.2,0-3.3,0C29.8,23.2,28.8,23.2,27.7,23.2z M34.2,34.7c0.8,0,1.3-0.5,1.3-1.1c0-0.7-0.5-1.2-1.3-1.2
	c-2.2,0-4.4,0-6.6,0c-0.8,0-1.3,0.5-1.3,1.2c0,0.7,0.5,1.2,1.3,1.2c1.1,0,2.2,0,3.3,0S33.1,34.7,34.2,34.7z"/>
</svg>
