<?xml version="1.0" encoding="utf-8"?>
<!-- Generator: Adobe Illustrator 23.0.0, SVG Export Plug-In . SVG Version: 6.00 Build 0)  -->
<svg version="1.0" id="Layer_1" xmlns="http://www.w3.org/2000/svg" xmlns:xlink="http://www.w3.org/1999/xlink" x="0px" y="0px"
	 width="20px" height="20px" viewBox="0 0 20 20" enable-background="new 0 0 20 20" xml:space="preserve">
<path fill="#FFFFFF" d="M16.2,7.9l0.1,9.6c0,0.6-0.5,1-1,1c0,0,0,0,0,0c-0.6,0-1-0.5-1-1l-0.1-9.6c-0.9-0.4-1.5-1.3-1.5-2.3
	c0-1,0.6-1.9,1.5-2.3l0-0.6c0-0.6,0.5-1,1-1c0,0,0,0,0,0c0.6,0,1,0.5,1,1l0,0.6c0.9,0.4,1.6,1.3,1.6,2.4C17.8,6.6,17.1,7.5,16.2,7.9
	z"/>
<path fill="#FFFFFF" d="M5.8,6l0-3.5c0-0.6-0.5-1-1-1c0,0,0,0,0,0c-0.6,0-1,0.5-1,1l0,3.5C2.9,6.5,2.2,7.4,2.2,8.4
	c0,1.1,0.6,2,1.6,2.4l0.1,6.7c0,0.6,0.5,1,1,1c0,0,0,0,0,0c0.6,0,1-0.5,1-1l-0.1-6.7c0.9-0.4,1.5-1.3,1.5-2.4C7.4,7.3,6.8,6.4,5.8,6
	z"/>
<path fill="#FFFFFF" d="M11,12L11,2.5c0-0.6-0.5-1-1-1c0,0,0,0,0,0c-0.6,0-1,0.5-1,1L9,12.1c-0.9,0.4-1.5,1.3-1.5,2.3
	c0,1.1,0.6,2,1.5,2.4l0,0.7c0,0.6,0.5,1,1,1c0,0,0,0,0,0c0.6,0,1-0.5,1-1l0-0.7c0.9-0.4,1.6-1.3,1.6-2.4C12.6,13.4,12,12.4,11,12z"
	/>
</svg>
