<?xml version="1.0" encoding="utf-8"?>
<!-- Generator: Adobe Illustrator 29.7.1, SVG Export Plug-In . SVG Version: 9.03 Build 0)  -->
<svg version="1.0" id="Layer_1" xmlns="http://www.w3.org/2000/svg" xmlns:xlink="http://www.w3.org/1999/xlink" x="0px" y="0px"
	 width="50px" height="50px" viewBox="0 0 50 50" enable-background="new 0 0 50 50" xml:space="preserve">
<path fill="#0F9D58" d="M29.55,0H10.23C8.35,0,6.82,1.53,6.82,3.41v43.18c0,1.88,1.53,3.41,3.41,3.41h29.55
	c1.87,0,3.41-1.53,3.41-3.41V13.64l-7.95-5.68L29.55,0z"/>
<path fill="#F1F1F1" d="M15.91,24.43v16.48h18.18V24.43H15.91z M23.86,38.64h-5.68V35.8h5.68V38.64z M23.86,34.09h-5.68v-2.84h5.68
	V34.09z M23.86,29.55h-5.68V26.7h5.68V29.55z M31.82,38.64h-5.68V35.8h5.68V38.64z M31.82,34.09h-5.68v-2.84h5.68V34.09z
	 M31.82,29.55h-5.68V26.7h5.68V29.55z"/>
<path opacity="0.1" d="M30.54,12.64l12.64,12.64V13.64L30.54,12.64z"/>
<path fill="#87CEAC" d="M29.55,0v10.23c0,1.88,1.53,3.41,3.41,3.41h10.23L29.55,0z"/>
</svg>
