<?xml version="1.0" encoding="utf-8"?>
<!-- Generator: Adobe Illustrator 29.7.1, SVG Export Plug-In . SVG Version: 9.03 Build 0)  -->
<svg version="1.0" id="Layer_1" xmlns="http://www.w3.org/2000/svg" xmlns:xlink="http://www.w3.org/1999/xlink" x="0px" y="0px"
	 viewBox="0 0 50 50" enable-background="new 0 0 50 50" xml:space="preserve">
<g>
	<path d="M10.41,0.18c6.08-0.54,12.82,0.34,18.97-0.04l0.99,0.17L43.24,13.2l0.13,0.51L43.36,45.9c-0.21,1.9-1.63,3.47-3.48,3.91
		c-9.87,0.26-19.82,0.23-29.69,0.02c-1.91-0.42-3.41-2.06-3.57-4.03l0-42.22C6.97,1.5,8.36,0.36,10.41,0.18z M28.27,2.36H10.06
		c-0.61,0-1.43,1.1-1.32,1.74l0,41.28c0.11,1.3,0.83,2.22,2.16,2.38h28.19c0.71-0.04,1.55-0.56,1.86-1.2
		c0.05-0.11,0.3-0.81,0.3-0.87V15.35H31.7c-1.28,0-3.43-1.92-3.43-3.22V2.36z M40.09,13.13l-9.71-9.71v8.29
		c0,0.44,0.87,1.42,1.32,1.42H40.09z"/>
	<path d="M33.65,24v15.09H16.34V24H33.65z M23.94,26.11h-5.38v2.22h5.38V26.11z M31.44,26.11h-5.38v2.22h5.38V26.11z M23.94,30.44
		h-5.38v2.22h5.38V30.44z M31.44,30.44h-5.38v2.22h5.38V30.44z M23.94,34.77h-5.38v2.22h5.38V34.77z M31.44,34.77h-5.38v2.22h5.38
		V34.77z"/>
</g>
</svg>
