<?xml version="1.0" encoding="utf-8"?>
<!-- Generator: Adobe Illustrator 23.0.0, SVG Export Plug-In . SVG Version: 6.00 Build 0)  -->
<svg version="1.0" id="Layer_1" xmlns="http://www.w3.org/2000/svg" xmlns:xlink="http://www.w3.org/1999/xlink" x="0px" y="0px"
	 viewBox="0 0 50 50" enable-background="new 0 0 50 50" xml:space="preserve">
<path opacity="0.5" enable-background="new    " d="M48,19.8c-0.2,0.3-0.3,0.6-0.5,0.8c-2.6,3.2-5.7,6.9-9.4,10.2
	c-0.4,0.4-0.7,0.8-0.5,1.4c0.9,5,1.1,9.6,1.1,13.8c0,0.2-0.1,0.4-0.2,0.5c-0.2,0-0.4,0-0.5-0.1c-4.1-1.7-8.1-3.5-12.5-5.9
	c-0.4-0.2-0.6-0.2-1,0c-3.5,1.8-6.6,3.4-9.6,4.8c-0.9,0.4-1.8,0.8-2.7,1.2c-0.5,0.2-0.7,0.1-0.7-0.4c0-3.8,0.1-7.8,0.9-12.2
	c0-0.2,0-0.5,0.1-0.7c0.5-1.3-0.1-2-1.1-3c-3.2-3.2-6.1-6.6-8.6-9.4c-0.2-0.2-0.4-0.5-0.6-0.9C3,19.6,3.8,19.2,4.8,19
	c3.5-0.8,7.5-1.5,11.9-2.1c0.3,0,0.6-0.3,0.7-0.6c0.9-1.9,1.7-3.8,2.7-5.5c1.5-2.6,3.1-5,4.6-7c0.1-0.1,0.3-0.2,0.4-0.3
	c0.2,0.1,0.4,0.2,0.5,0.3c1.5,2,3.1,4.5,4.8,7.2c0.9,1.6,1.7,3.4,2.5,5.2c0.2,0.4,0.5,0.6,0.9,0.7c3.5,0.5,6.7,1,9.5,1.6
	c1.6,0.4,3.1,0.9,4.5,1.3C47.8,19.7,47.9,19.7,48,19.8z"/>
<linearGradient id="SVGID_1_" gradientUnits="userSpaceOnUse" x1="42.7725" y1="30.5112" x2="4.7273" y2="21.7277">
	<stop  offset="2.153341e-02" style="stop-color:#CE8014"/>
	<stop  offset="5.952756e-02" style="stop-color:#DF9810"/>
	<stop  offset="0.1055" style="stop-color:#EFAD0D"/>
	<stop  offset="0.1502" style="stop-color:#F8BA0B"/>
	<stop  offset="0.192" style="stop-color:#FBBE0A"/>
	<stop  offset="0.285" style="stop-color:#FBBF0C"/>
	<stop  offset="0.3285" style="stop-color:#FBC114"/>
	<stop  offset="0.3618" style="stop-color:#FCC620"/>
	<stop  offset="0.3899" style="stop-color:#FDCD33"/>
	<stop  offset="0.4146" style="stop-color:#FED54B"/>
	<stop  offset="0.4368" style="stop-color:#FFE067"/>
	<stop  offset="0.4404" style="stop-color:#FFE26D"/>
	<stop  offset="0.4531" style="stop-color:#FEDA56"/>
	<stop  offset="0.4719" style="stop-color:#FDD03A"/>
	<stop  offset="0.4924" style="stop-color:#FCC825"/>
	<stop  offset="0.5149" style="stop-color:#FBC216"/>
	<stop  offset="0.5412" style="stop-color:#FBBF0D"/>
	<stop  offset="0.5799" style="stop-color:#FBBE0A"/>
	<stop  offset="0.604" style="stop-color:#F2B20C"/>
	<stop  offset="0.6705" style="stop-color:#DE9710"/>
	<stop  offset="0.729" style="stop-color:#D28613"/>
	<stop  offset="0.7732" style="stop-color:#CE8014"/>
	<stop  offset="0.8039" style="stop-color:#D88E12"/>
	<stop  offset="0.8715" style="stop-color:#EBA90D"/>
	<stop  offset="0.9321" style="stop-color:#F7B80B"/>
	<stop  offset="0.9795" style="stop-color:#FBBE0A"/>
</linearGradient>
<path fill="url(#SVGID_1_)" d="M44.8,20.4c-1.2-0.4-2.5-0.8-3.9-1.1c-2.5-0.5-5.3-1-8.3-1.4c-0.4-0.1-0.6-0.3-0.8-0.6
	c-0.7-1.6-1.4-3.1-2.2-4.5c-1.4-2.4-2.8-4.5-4.2-6.3c-0.1-0.1-0.3-0.2-0.4-0.3c-0.1,0.1-0.3,0.2-0.4,0.3c-1.2,1.8-2.7,3.8-4,6.1
	c-0.9,1.5-1.6,3.1-2.4,4.8c-0.1,0.3-0.4,0.5-0.6,0.5c-3.8,0.5-7.3,1.2-10.3,1.9C6.4,20,5.7,20.3,5,20.6c0.2,0.4,0.4,0.6,0.5,0.8
	c2.2,2.5,4.7,5.4,7.5,8.2c0.9,0.9,1.4,1.5,1,2.7c-0.1,0.2-0.1,0.4-0.1,0.6c-0.7,3.8-0.8,7.3-0.8,10.6c0,0.4,0.2,0.5,0.6,0.4
	c0.8-0.4,1.6-0.7,2.4-1.1c2.7-1.2,5.4-2.6,8.4-4.2c0.4-0.2,0.5-0.2,0.9,0c3.8,2.1,7.3,3.6,10.9,5.1c0.1,0.1,0.3,0.1,0.4,0.1
	c0.1-0.1,0.2-0.3,0.2-0.4c0-3.6-0.2-7.7-1-12c-0.2-0.5,0.1-0.9,0.4-1.2c3.3-2.8,5.9-6,8.2-8.8c0.2-0.2,0.3-0.4,0.4-0.7
	C45,20.4,44.9,20.4,44.8,20.4z"/>
<linearGradient id="SVGID_2_" gradientUnits="userSpaceOnUse" x1="42.7725" y1="30.5112" x2="4.7273" y2="21.7277">
	<stop  offset="2.694207e-02" style="stop-color:#FFF0C5"/>
	<stop  offset="3.489647e-02" style="stop-color:#FFEFC1"/>
	<stop  offset="4.264334e-02" style="stop-color:#FFECB5"/>
	<stop  offset="5.030942e-02" style="stop-color:#FEE7A2"/>
	<stop  offset="5.792620e-02" style="stop-color:#FEDF86"/>
	<stop  offset="6.551189e-02" style="stop-color:#FDD663"/>
	<stop  offset="7.296517e-02" style="stop-color:#FCCA38"/>
	<stop  offset="7.978306e-02" style="stop-color:#FBBE0A"/>
	<stop  offset="0.4285" style="stop-color:#FBBE0A"/>
	<stop  offset="0.4756" style="stop-color:#FBBF0C"/>
	<stop  offset="0.4976" style="stop-color:#FBC114"/>
	<stop  offset="0.5144" style="stop-color:#FBC421"/>
	<stop  offset="0.5286" style="stop-color:#FCC933"/>
	<stop  offset="0.5412" style="stop-color:#FCCF4B"/>
	<stop  offset="0.5525" style="stop-color:#FDD768"/>
	<stop  offset="0.563" style="stop-color:#FEE08B"/>
	<stop  offset="0.5725" style="stop-color:#FFEBB2"/>
	<stop  offset="0.5765" style="stop-color:#FFF0C5"/>
	<stop  offset="0.6247" style="stop-color:#FEE18E"/>
	<stop  offset="0.6729" style="stop-color:#FDD55F"/>
	<stop  offset="0.7188" style="stop-color:#FCCB3A"/>
	<stop  offset="0.7614" style="stop-color:#FBC420"/>
	<stop  offset="0.7992" style="stop-color:#FBC010"/>
	<stop  offset="0.8286" style="stop-color:#FBBE0A"/>
	<stop  offset="0.8508" style="stop-color:#FBC41F"/>
	<stop  offset="0.8968" style="stop-color:#FDD255"/>
	<stop  offset="0.9618" style="stop-color:#FEE9AA"/>
	<stop  offset="0.9811" style="stop-color:#FFF0C5"/>
</linearGradient>
<path fill="url(#SVGID_2_)" d="M44.8,20.4c-1.2-0.4-2.5-0.8-3.9-1.1c-2.5-0.5-5.3-1-8.3-1.4c-0.4-0.1-0.6-0.3-0.8-0.6
	c-0.7-1.6-1.4-3.1-2.2-4.5c-1.4-2.4-2.8-4.5-4.2-6.3c-0.1-0.1-0.3-0.2-0.4-0.3c-0.1,0.1-0.3,0.2-0.4,0.3c-1.2,1.8-2.7,3.8-4,6.1
	c-0.9,1.5-1.6,3.1-2.4,4.8c-0.1,0.3-0.4,0.5-0.6,0.5c-3.8,0.5-7.3,1.2-10.3,1.9C6.4,20,5.7,20.3,5,20.6c0.2,0.4,0.4,0.6,0.5,0.8
	c2.2,2.5,4.7,5.4,7.5,8.2c0.9,0.9,1.4,1.5,1,2.7c-0.1,0.2-0.1,0.4-0.1,0.6c-0.7,3.8-0.8,7.3-0.8,10.6c0,0.4,0.2,0.5,0.6,0.4
	c0.8-0.4,1.6-0.7,2.4-1.1c2.7-1.2,5.4-2.6,8.4-4.2c0.4-0.2,0.5-0.2,0.9,0c3.8,2.1,7.3,3.6,10.9,5.1c0.1,0.1,0.3,0.1,0.4,0.1
	c0.1-0.1,0.2-0.3,0.2-0.4c0-3.6-0.2-7.7-1-12c-0.2-0.5,0.1-0.9,0.4-1.2c3.3-2.8,5.9-6,8.2-8.8c0.2-0.2,0.3-0.4,0.4-0.7
	C45,20.4,44.9,20.4,44.8,20.4z M42.2,21.7c-2,2.5-4.3,5.3-7.2,7.7c-0.3,0.3-0.5,0.6-0.4,1.1c0.7,3.8,0.8,7.3,0.8,10.5
	c0,0.2-0.1,0.3-0.2,0.4c-0.2,0-0.3,0-0.4-0.1c-3.1-1.3-6.2-2.6-9.5-4.5c-0.3-0.2-0.5-0.2-0.8,0c-2.6,1.4-5,2.5-7.3,3.6
	c-0.7,0.3-1.4,0.6-2.1,0.9c-0.4,0.2-0.5,0.1-0.5-0.3c0-2.9,0.1-5.9,0.7-9.3c0-0.2,0-0.4,0.1-0.5c0.4-1-0.1-1.5-0.8-2.3
	c-2.5-2.5-4.6-5-6.6-7.2c-0.2-0.2-0.3-0.4-0.5-0.7c0.6-0.2,1.2-0.5,2-0.7c2.6-0.6,5.7-1.2,9-1.6c0.2,0,0.5-0.2,0.5-0.5
	c0.7-1.5,1.3-2.9,2.1-4.2c1.2-2,2.4-3.8,3.5-5.3c0.1-0.1,0.2-0.2,0.3-0.2c0.2,0.1,0.3,0.2,0.4,0.2c1.2,1.5,2.4,3.4,3.6,5.5
	c0.7,1.2,1.3,2.5,1.9,3.9c0.2,0.3,0.4,0.5,0.7,0.5c2.6,0.4,5.1,0.8,7.3,1.2c1.2,0.3,2.4,0.7,3.4,1c0.1,0,0.2,0,0.2,0.1
	C42.4,21.3,42.3,21.5,42.2,21.7z"/>
</svg>
