<?xml version="1.0" encoding="utf-8"?>
<!-- Generator: Adobe Illustrator 23.0.0, SVG Export Plug-In . SVG Version: 6.00 Build 0)  -->
<svg version="1.0" id="follow_x5F_icon" xmlns="http://www.w3.org/2000/svg" xmlns:xlink="http://www.w3.org/1999/xlink" x="0px"
	 y="0px" width="50px" height="50px" viewBox="0 0 50 50" enable-background="new 0 0 50 50" xml:space="preserve">
<path fill="#FFFFFF" d="M24.4,26.5c-4.1-0.2-6.7-4.3-7.1-9.4c-0.5-5,2.5-9.8,7.4-9.9c5,0,8,4.1,7.6,9.4
	C31.9,22.5,28.5,26.5,24.4,26.5z M24.3,42.8c-12.6-1.8-12.2-4.8-12.1-6.9c0.2-2,3.2-3.5,6-5.5c4.6-3.2,13.5-0.2,18.8,5.1
	c0.4,0.4,1.1,1.8,0.9,2.5c-0.2,0.7-0.5,1.4-1.1,1.8C33.3,41.8,28.9,43.2,24.3,42.8L24.3,42.8z"/>
</svg>
