<?xml version="1.0" encoding="utf-8"?>
<!-- Generator: Adobe Illustrator 23.0.0, SVG Export Plug-In . SVG Version: 6.00 Build 0)  -->
<svg version="1.0" id="Layer_1" xmlns="http://www.w3.org/2000/svg" xmlns:xlink="http://www.w3.org/1999/xlink" x="0px" y="0px"
	 width="20px" height="20px" viewBox="0 0 20 20" enable-background="new 0 0 20 20" xml:space="preserve">
<path id="brow" fill="#FFFFFF" d="M10.6,5.6c-5.3-2.6-8,1.6-8.1,1.8C2.3,7.7,1.8,7.8,1.4,7.6C1,7.4,0.9,6.8,1.1,6.5l0,0
	c0-0.1,3.5-5.6,10.3-2.3c4.8,2.3,6.1,2.1,6.3,2C18,6,18.5,6,18.8,6.3c0.3,0.3,0.3,0.8,0,1.2l0,0c-0.3,0.3-0.8,0.4-1.3,0.4
	C16.2,7.9,14.2,7.4,10.6,5.6z"/>
<path id="eye" fill="#FFFFFF" d="M2.3,9.4c1.7-2,3.6-3,5.5-3.1c1.8,0,3.6,0.8,5.4,2.6c0.1,0,0.2,0,0.2,0h3.3c0.4,0,0.8,0.3,0.8,0.7
	c0,0.4-0.3,0.8-0.7,0.8c0,0,0,0-0.1,0h-3l0,0c-1,1.1-2.2,1.8-3.6,2.2c0.7,1.2,2.4,3.1,4.9,2.4c0.5-0.1,1.5-0.5,1.5-1.2
	c0-0.3-0.2-0.6-0.4-0.8l-0.1,0.1c-0.2,0.4-0.7,0.5-1.1,0.3c-0.4-0.2-0.5-0.6-0.4-1.1l0,0c0.3-0.7,1.1-1.2,1.9-1
	c1.1,0.3,1.8,1.3,1.8,2.3c0,0.6-0.2,2.1-2.6,2.7c-0.4,0.1-0.8,0.2-1.3,0.2c-2.9,0-4.9-2.3-5.7-3.9H8.4c-0.1,0-0.3,0-0.4,0V16
	c0,0.4-0.4,0.8-0.8,0.7c-0.4,0-0.7-0.3-0.7-0.7v-3.4c-1.5-0.4-2.7-1.2-3.9-2.2C2,10.2,2,9.7,2.3,9.4L2.3,9.4z M11.9,9.9
	C10.8,8.7,9.4,8,7.8,8C6.3,8.1,5,8.7,4,9.9C6.3,11.8,9.6,11.8,11.9,9.9L11.9,9.9z"/>
</svg>
