<?xml version="1.0" encoding="utf-8"?>
<!-- Generator: Adobe Illustrator 23.0.0, SVG Export Plug-In . SVG Version: 6.00 Build 0)  -->
<svg version="1.0" id="Layer_1" xmlns="http://www.w3.org/2000/svg" xmlns:xlink="http://www.w3.org/1999/xlink" x="0px" y="0px"
	 viewBox="0 0 50 50" enable-background="new 0 0 50 50" xml:space="preserve">
<g id="i_whatsapp" transform="translate(0 0.003)">
	<path id="whitebubble" fill="#F1F2F2" d="M14.1,45.7c11.8,6.2,26.5,1.6,32.7-10.2C53,23.6,48.4,9,36.6,2.8
		C24.7-3.4,10.1,1.1,3.9,13c-1.8,3.5-2.8,7.3-2.8,11.3c0,4.6,1.3,9,3.7,12.9L0,50L14.1,45.7z"/>
	<path id="greenbubble" fill="#189D0E" d="M25.6,44.7c-3.4,0-6.7-0.8-9.7-2.4l-1.4-0.7l-8.2,2.5l2.8-7.4l-1-1.6
		c-2.1-3.3-3.2-7-3.2-10.9C4.8,12.8,14,3.5,25.4,3.4s20.7,9.1,20.8,20.5S37.1,44.6,25.6,44.7C25.7,44.7,25.6,44.7,25.6,44.7
		L25.6,44.7z"/>
	<path id="phoneicon" fill="#FFFFFF" d="M17.7,12.4c1-0.6,2.3-0.6,2.6,0s2.3,4.5,2.5,5s0.4,2-1.7,3.6c1.7,3.8,4.8,6.7,8.7,8
		c0,0,2.1-2.2,2.2-2.3c0.3-0.5,1-0.7,1.6-0.5c0,0,3.3,1.9,4.2,2.4c0.8,0.5,0.6,0.8,0.6,1.3s-0.8,5.3-6.8,4.6s-14.8-9.3-16.5-15.3
		C15.1,19.1,14.2,14.4,17.7,12.4z"/>
</g>
</svg>
