<?xml version="1.0" encoding="utf-8"?>
<!-- Generator: Adobe Illustrator 29.7.1, SVG Export Plug-In . SVG Version: 9.03 Build 0)  -->
<svg version="1.0" id="Layer_1" xmlns="http://www.w3.org/2000/svg" xmlns:xlink="http://www.w3.org/1999/xlink" x="0px" y="0px"
	 viewBox="0 0 50 50" enable-background="new 0 0 50 50" xml:space="preserve">
<g id="i_whatsapp" transform="translate(0 0.003)">
	<g>
		<path d="M36.45,3.49c-11.53-6-25.67-1.65-31.67,9.88c-1.74,3.39-2.71,7.07-2.71,10.94c0,4.46,1.26,8.72,3.58,12.49L1,49.2
			l13.66-4.16c11.43,6,25.67,1.55,31.67-9.88C52.33,23.63,47.88,9.49,36.45,3.49z M25.79,44.07c0.03,0,0.04,0,0.04,0
			C25.83,44.07,25.81,44.07,25.79,44.07c-3.29,0-6.49-0.77-9.39-2.32l-1.36-0.68L7.1,43.49l2.71-7.17l-0.97-1.55
			c-2.03-3.2-3.1-6.78-3.1-10.56C5.65,13.17,14.56,4.16,25.6,4.07c11.04-0.1,20.05,8.81,20.14,19.85
			C45.84,34.96,36.93,43.97,25.79,44.07z"/>
	</g>
	<path id="phoneicon" d="M18.14,12.78c0.97-0.58,2.23-0.58,2.52,0s2.23,4.36,2.42,4.84c0.19,0.48,0.39,1.94-1.65,3.49
		c1.65,3.68,4.65,6.49,8.43,7.75c0,0,2.03-2.13,2.13-2.23c0.29-0.48,0.97-0.68,1.55-0.48c0,0,3.2,1.84,4.07,2.32
		c0.77,0.48,0.58,0.77,0.58,1.26c0,0.48-0.77,5.13-6.59,4.46c-5.81-0.68-14.33-9.01-15.98-14.82
		C15.62,19.27,14.75,14.72,18.14,12.78z"/>
</g>
</svg>
