<?xml version="1.0" encoding="utf-8"?>
<!-- Generator: Adobe Illustrator 23.0.0, SVG Export Plug-In . SVG Version: 6.00 Build 0)  -->
<svg version="1.0" id="Layer_1" xmlns="http://www.w3.org/2000/svg" xmlns:xlink="http://www.w3.org/1999/xlink" x="0px" y="0px"
	 width="50px" height="50px" viewBox="0 0 50 50" enable-background="new 0 0 50 50" xml:space="preserve">
<path fill="#FFFFFF" d="M34.9,24.4l6.7-6.7c1.5-1.5,1.5-3.9,0-5.4l-3.9-3.9c-1.5-1.5-3.9-1.5-5.4,0l-6.7,6.7c-0.3,0.3-0.9,0.3-1.2,0
	l-6.7-6.7c-1.5-1.5-3.9-1.5-5.4,0l-3.9,3.9c-1.5,1.5-1.5,3.9,0,5.4l6.7,6.7c0.3,0.3,0.3,0.9,0,1.2l-6.7,6.7c-1.5,1.5-1.5,3.9,0,5.4
	l3.9,3.9c1.5,1.5,3.9,1.5,5.4,0l6.7-6.7c0.3-0.3,0.9-0.3,1.2,0l6.7,6.7c1.5,1.5,3.9,1.5,5.4,0l3.9-3.9c1.5-1.5,1.5-3.9,0-5.4
	l-6.7-6.7C34.5,25.3,34.5,24.7,34.9,24.4z"/>
</svg>
